# xmcd
#
# Track frame offsets:
#	150
#	15277
#	38240
#	52932
#
# Disc length: 1013 seconds
#
# Revision: 0
# Processed by: cddbd v1.5.2PL0 Copyright (c) Steve Scherf et al.
# Submitted via: audiograbber 1.83.01
#
DISCID=2103f304
DTITLE=Charizma - Peace And Love - Don't You Know [CDM)
DYEAR=1997
DGENRE=Dance
TTITLE0=Peace And Love (Radio Edit)
TTITLE1=Peace And Love (Jim V's Gorgizmo Mix)
TTITLE2=Don't You Know (Radio Edit)
TTITLE3=Don't You Know (Jim V's Club Edit)
EXTD=TR.
EXTT0=
EXTT1=
EXTT2=
EXTT3=
PLAYORDER=
